<svg width="400" height="400" viewBox="0 0 400 400" fill="none" xmlns="http://www.w3.org/2000/svg">
  <path d="M300 100C355.228 100 400 144.772 400 200C400 255.228 355.228 300 300 300C244.772 300 200 255.228 200 200C200 144.772 244.772 100 300 100Z" fill="url(#paint0_linear)"/>
  <path d="M100 200C155.228 200 200 244.772 200 300C200 355.228 155.228 400 100 400C44.7715 400 0 355.228 0 300C0 244.772 44.7715 200 100 200Z" fill="url(#paint1_linear)"/>
  <path d="M100 0C155.228 0 200 44.7715 200 100C200 155.228 155.228 200 100 200C44.7715 200 0 155.228 0 100C0 44.7715 44.7715 0 100 0Z" fill="url(#paint2_linear)"/>
  <defs>
    <linearGradient id="paint0_linear" x1="200" y1="200" x2="400" y2="200" gradientUnits="userSpaceOnUse">
      <stop stop-color="#10B981"/>
      <stop offset="1" stop-color="#3B82F6"/>
    </linearGradient>
    <linearGradient id="paint1_linear" x1="0" y1="300" x2="200" y2="300" gradientUnits="userSpaceOnUse">
      <stop stop-color="#F59E0B"/>
      <stop offset="1" stop-color="#EF4444"/>
    </linearGradient>
    <linearGradient id="paint2_linear" x1="0" y1="100" x2="200" y2="100" gradientUnits="userSpaceOnUse">
      <stop stop-color="#8B5CF6"/>
      <stop offset="1" stop-color="#EC4899"/>
    </linearGradient>
  </defs>
</svg>
