<svg width="1200" height="800" viewBox="0 0 1200 800" fill="none" xmlns="http://www.w3.org/2000/svg">
  <rect width="1200" height="800" fill="#0F0F13"/>
  <g opacity="0.4">
    <circle cx="200" cy="200" r="100" fill="url(#paint0_radial)"/>
    <circle cx="1000" cy="600" r="150" fill="url(#paint1_radial)"/>
    <circle cx="600" cy="400" r="200" fill="url(#paint2_radial)"/>
  </g>
  <g opacity="0.1">
    <rect x="0" y="0" width="1200" height="800" stroke="#FFFFFF" stroke-width="1"/>
    <line x1="0" y1="100" x2="1200" y2="100" stroke="#FFFFFF" stroke-width="0.5"/>
    <line x1="0" y1="200" x2="1200" y2="200" stroke="#FFFFFF" stroke-width="0.5"/>
    <line x1="0" y1="300" x2="1200" y2="300" stroke="#FFFFFF" stroke-width="0.5"/>
    <line x1="0" y1="400" x2="1200" y2="400" stroke="#FFFFFF" stroke-width="0.5"/>
    <line x1="0" y1="500" x2="1200" y2="500" stroke="#FFFFFF" stroke-width="0.5"/>
    <line x1="0" y1="600" x2="1200" y2="600" stroke="#FFFFFF" stroke-width="0.5"/>
    <line x1="0" y1="700" x2="1200" y2="700" stroke="#FFFFFF" stroke-width="0.5"/>
    <line x1="100" y1="0" x2="100" y2="800" stroke="#FFFFFF" stroke-width="0.5"/>
    <line x1="200" y1="0" x2="200" y2="800" stroke="#FFFFFF" stroke-width="0.5"/>
    <line x1="300" y1="0" x2="300" y2="800" stroke="#FFFFFF" stroke-width="0.5"/>
    <line x1="400" y1="0" x2="400" y2="800" stroke="#FFFFFF" stroke-width="0.5"/>
    <line x1="500" y1="0" x2="500" y2="800" stroke="#FFFFFF" stroke-width="0.5"/>
    <line x1="600" y1="0" x2="600" y2="800" stroke="#FFFFFF" stroke-width="0.5"/>
    <line x1="700" y1="0" x2="700" y2="800" stroke="#FFFFFF" stroke-width="0.5"/>
    <line x1="800" y1="0" x2="800" y2="800" stroke="#FFFFFF" stroke-width="0.5"/>
    <line x1="900" y1="0" x2="900" y2="800" stroke="#FFFFFF" stroke-width="0.5"/>
    <line x1="1000" y1="0" x2="1000" y2="800" stroke="#FFFFFF" stroke-width="0.5"/>
    <line x1="1100" y1="0" x2="1100" y2="800" stroke="#FFFFFF" stroke-width="0.5"/>
  </g>
  <defs>
    <radialGradient id="paint0_radial" cx="0" cy="0" r="1" gradientUnits="userSpaceOnUse" gradientTransform="translate(200 200) rotate(90) scale(100)">
      <stop stop-color="#8B5CF6"/>
      <stop offset="1" stop-color="#8B5CF6" stop-opacity="0"/>
    </radialGradient>
    <radialGradient id="paint1_radial" cx="0" cy="0" r="1" gradientUnits="userSpaceOnUse" gradientTransform="translate(1000 600) rotate(90) scale(150)">
      <stop stop-color="#3B82F6"/>
      <stop offset="1" stop-color="#3B82F6" stop-opacity="0"/>
    </radialGradient>
    <radialGradient id="paint2_radial" cx="0" cy="0" r="1" gradientUnits="userSpaceOnUse" gradientTransform="translate(600 400) rotate(90) scale(200)">
      <stop stop-color="#10B981"/>
      <stop offset="1" stop-color="#10B981" stop-opacity="0"/>
    </radialGradient>
  </defs>
</svg>
