<svg xmlns="http://www.w3.org/2000/svg" viewBox="0 0 100 100" width="100" height="100">
  <circle cx="50" cy="50" r="45" fill="#333333" />
  <path d="M33.3 20h16.7c4.6 0 8.3 3.7 8.3 8.3s-3.7 8.3-8.3 8.3H33.3V20z" fill="#F24E1E" />
  <path d="M33.3 36.7h16.7c4.6 0 8.3 3.7 8.3 8.3s-3.7 8.3-8.3 8.3H33.3V36.7z" fill="#FF7262" />
  <path d="M33.3 53.3h16.7c4.6 0 8.3 3.7 8.3 8.3s-3.7 8.3-8.3 8.3c-4.6 0-8.3-3.7-8.3-8.3v-8.3z" fill="#1ABCFE" />
  <path d="M33.3 53.3c-4.6 0-8.3-3.7-8.3-8.3s3.7-8.3 8.3-8.3 8.3 3.7 8.3 8.3-3.7 8.3-8.3 8.3z" fill="#A259FF" />
  <path d="M33.3 20c-4.6 0-8.3 3.7-8.3 8.3s3.7 8.3 8.3 8.3 8.3-3.7 8.3-8.3S37.9 20 33.3 20z" fill="#0ACF83" />
  <path d="M58.3 20h8.3c4.6 0 8.3 3.7 8.3 8.3v33.3c0 4.6-3.7 8.3-8.3 8.3h-8.3V20z" fill="#FF7262" />
</svg>
