<svg xmlns="http://www.w3.org/2000/svg" viewBox="0 0 100 100" width="100" height="100">
  <circle cx="50" cy="50" r="45" fill="#282c34" />
  <path d="M50 34.6c-8.6 0-15.5 1.4-20.4 3.8-6 2.9-9.7 7.3-9.7 12.6 0 5.3 3.7 9.7 9.7 12.6 4.9 2.4 11.8 3.8 20.4 3.8s15.5-1.4 20.4-3.8c6-2.9 9.7-7.3 9.7-12.6 0-5.3-3.7-9.7-9.7-12.6-4.9-2.4-11.8-3.8-20.4-3.8zm0 2.5c8.2 0 14.7 1.3 19.1 3.5 4.8 2.3 7.8 5.6 7.8 10.4 0 4.8-3 8.1-7.8 10.4-4.4 2.2-10.9 3.5-19.1 3.5s-14.7-1.3-19.1-3.5c-4.8-2.3-7.8-5.6-7.8-10.4 0-4.8 3-8.1 7.8-10.4 4.4-2.2 10.9-3.5 19.1-3.5z" fill="#61dafb" />
  <path d="M50 34.6c-8.6 0-15.5 1.4-20.4 3.8-6 2.9-9.7 7.3-9.7 12.6 0 5.3 3.7 9.7 9.7 12.6 4.9 2.4 11.8 3.8 20.4 3.8s15.5-1.4 20.4-3.8c6-2.9 9.7-7.3 9.7-12.6 0-5.3-3.7-9.7-9.7-12.6-4.9-2.4-11.8-3.8-20.4-3.8zm0 2.5c8.2 0 14.7 1.3 19.1 3.5 4.8 2.3 7.8 5.6 7.8 10.4 0 4.8-3 8.1-7.8 10.4-4.4 2.2-10.9 3.5-19.1 3.5s-14.7-1.3-19.1-3.5c-4.8-2.3-7.8-5.6-7.8-10.4 0-4.8 3-8.1 7.8-10.4 4.4-2.2 10.9-3.5 19.1-3.5z" fill="none" stroke="#61dafb" stroke-width="1" />
  <path d="M30.4 50c0-10.8 8.8-19.6 19.6-19.6S69.6 39.2 69.6 50 60.8 69.6 50 69.6 30.4 60.8 30.4 50z" fill="#282c34" stroke="#61dafb" stroke-width="1" />
  <path d="M50 34.6c-8.6 0-15.5 1.4-20.4 3.8-6 2.9-9.7 7.3-9.7 12.6 0 5.3 3.7 9.7 9.7 12.6 4.9 2.4 11.8 3.8 20.4 3.8s15.5-1.4 20.4-3.8c6-2.9 9.7-7.3 9.7-12.6 0-5.3-3.7-9.7-9.7-12.6-4.9-2.4-11.8-3.8-20.4-3.8zm0 2.5c8.2 0 14.7 1.3 19.1 3.5 4.8 2.3 7.8 5.6 7.8 10.4 0 4.8-3 8.1-7.8 10.4-4.4 2.2-10.9 3.5-19.1 3.5s-14.7-1.3-19.1-3.5c-4.8-2.3-7.8-5.6-7.8-10.4 0-4.8 3-8.1 7.8-10.4 4.4-2.2 10.9-3.5 19.1-3.5z" fill="none" stroke="#61dafb" stroke-width="1" transform="rotate(60 50 50)" />
  <path d="M50 34.6c-8.6 0-15.5 1.4-20.4 3.8-6 2.9-9.7 7.3-9.7 12.6 0 5.3 3.7 9.7 9.7 12.6 4.9 2.4 11.8 3.8 20.4 3.8s15.5-1.4 20.4-3.8c6-2.9 9.7-7.3 9.7-12.6 0-5.3-3.7-9.7-9.7-12.6-4.9-2.4-11.8-3.8-20.4-3.8zm0 2.5c8.2 0 14.7 1.3 19.1 3.5 4.8 2.3 7.8 5.6 7.8 10.4 0 4.8-3 8.1-7.8 10.4-4.4 2.2-10.9 3.5-19.1 3.5s-14.7-1.3-19.1-3.5c-4.8-2.3-7.8-5.6-7.8-10.4 0-4.8 3-8.1 7.8-10.4 4.4-2.2 10.9-3.5 19.1-3.5z" fill="none" stroke="#61dafb" stroke-width="1" transform="rotate(120 50 50)" />
  <circle cx="50" cy="50" r="5" fill="#61dafb" />
</svg>
