<svg xmlns="http://www.w3.org/2000/svg" viewBox="0 0 100 100" width="100" height="100">
  <circle cx="50" cy="50" r="45" fill="#3178C6" />
  <path d="M22 50V22h56v56H22V50z" fill="#3178C6" stroke="white" stroke-width="2" />
  <path d="M54.7 54.9v7.8c1.3.7 2.8 1.2 4.4 1.5 1.7.3 3.4.5 5.2.5 1.8 0 3.4-.2 5-.5 1.6-.3 2.9-.9 4.1-1.7 1.2-.8 2.1-1.8 2.7-3 .7-1.2 1-2.7 1-4.4 0-1.3-.2-2.4-.6-3.3-.4-.9-1-1.7-1.7-2.4-.7-.7-1.6-1.3-2.5-1.8-1-.5-2-1-3.1-1.4-1.1-.4-2.1-.8-3.1-1.1-1-.3-1.8-.7-2.5-1.1-.7-.4-1.3-.8-1.7-1.3-.4-.5-.6-1.1-.6-1.8 0-.6.2-1.1.5-1.5.3-.4.7-.8 1.3-1 .5-.3 1.2-.5 1.9-.6.7-.1 1.5-.2 2.3-.2 1.2 0 2.5.2 3.8.5 1.3.3 2.6.8 3.8 1.5v-7.3c-1.2-.5-2.5-.8-3.9-1-1.4-.2-3-.3-4.8-.3-1.7 0-3.4.2-4.9.6-1.5.4-2.9 1-4 1.8-1.1.8-2 1.8-2.7 3-.7 1.2-1 2.6-1 4.2 0 2.1.6 3.8 1.8 5.2 1.2 1.4 3 2.6 5.4 3.6.9.4 1.9.7 2.8 1.1.9.3 1.8.7 2.5 1 .8.4 1.4.8 1.8 1.3.5.5.7 1.1.7 1.8 0 .6-.1 1.1-.4 1.5-.3.4-.7.8-1.2 1.1-.5.3-1.1.5-1.9.7-.7.1-1.5.2-2.4.2-1.5 0-3-.3-4.5-.8-1.5-.5-2.9-1.3-4.1-2.2z" fill="white" />
  <path d="M42.6 48.2h-7.9v-5.8h21.6v5.8h-7.9v22.6h-5.8V48.2z" fill="white" />
</svg>
