<svg xmlns="http://www.w3.org/2000/svg" viewBox="0 0 100 100" width="100" height="100">
  <circle cx="50" cy="50" r="45" fill="#333333" />
  <path d="M50 15c-9.4 0-17 7.6-17 17 0 7.4 5.1 13.7 12 15.5v21.1c0 1.4.8 2.7 2 3.3 1.2.6 2.7.5 3.8-.3l3.5-2.5 3.5 2.5c.6.4 1.3.7 2 .7.6 0 1.2-.1 1.8-.4 1.2-.6 2-1.9 2-3.3V47.5c6.9-1.8 12-8.1 12-15.5 0-9.4-7.6-17-17-17zm0 4c7.2 0 13 5.8 13 13 0 5.9-3.9 10.8-9.3 12.4-.9.3-1.5 1.1-1.5 2v18.9l-2.2-1.6c-.6-.4-1.3-.7-2-.7s-1.4.2-2 .7l-2.2 1.6V46.4c0-.9-.6-1.8-1.5-2C36.9 42.8 33 37.9 33 32c0-7.2 5.8-13 13-13z" fill="#4DB33D" />
  <path d="M50 19v28.5c0 1.4.8 2.7 2 3.3 1.2.6 2.7.5 3.8-.3l3.5-2.5 3.5 2.5c.6.4 1.3.7 2 .7.6 0 1.2-.1 1.8-.4 1.2-.6 2-1.9 2-3.3V47.5c6.9-1.8 12-8.1 12-15.5 0-9.4-7.6-17-17-17-9.4 0-17 7.6-17 17 0 7.4 5.1 13.7 12 15.5" fill="none" stroke="#4DB33D" stroke-width="2" />
</svg>
