<svg xmlns="http://www.w3.org/2000/svg" viewBox="0 0 100 100" width="100" height="100">
  <circle cx="50" cy="50" r="45" fill="#333333" />
  <path d="M50 14.4c-1.3 0-2.6.3-3.8 1L23.4 28.5c-2.4 1.4-3.8 4-3.8 6.7v27.7c0 2.8 1.5 5.3 3.8 6.7l6 3.4c2.9 1.4 3.9 1.4 5.3 1.4 4.3 0 6.8-2.6 6.8-7.1V41c0-.4-.3-.7-.7-.7h-2.9c-.4 0-.7.3-.7.7v27.2c0 2-2.1 4-5.5 2.3l-6.2-3.6c-.2-.1-.4-.4-.4-.7V35.2c0-.3.1-.5.4-.7l22.8-13.2c.2-.1.5-.1.8 0l22.8 13.2c.2.1.4.4.4.7v27.7c0 .3-.1.5-.4.7L50.8 76.8c-.2.1-.5.1-.8 0l-5.9-3.5c-.2-.1-.5-.1-.7 0-1.7.9-2 1.1-3.5 1.6-1.2.4-3 1-1.3 2.9l7.7 4.5c1.2.7 2.5 1 3.8 1s2.6-.3 3.8-1l22.8-13.2c2.4-1.4 3.8-4 3.8-6.7V35.2c0-2.8-1.5-5.3-3.8-6.7L53.8 15.4c-1.2-.7-2.5-1-3.8-1z" fill="#8CC84B" />
  <path d="M62.8 61.4c-6.4 0-7.8-1.5-8.2-4.4-.1-.3-.3-.6-.7-.6h-3c-.4 0-.7.3-.7.7 0 4.1 2.2 9 12.6 9 7.5 0 11.8-3 11.8-8.1 0-5.1-3.5-6.5-10.7-7.5-7.3-.9-8.1-1.4-8.1-3 0-1.3.6-3.1 5.7-3.1 4.6 0 6.3.9 7 3.8.1.3.3.5.7.5h3c.2 0 .4-.1.5-.2.1-.2.2-.3.2-.5-.5-5.7-4.3-8.4-11.3-8.4-6.5 0-10.3 2.7-10.3 7.3 0 5 3.8 6.3 10 6.9 7.4.7 8.8 1.7 8.8 3.5-.1 2.8-2.2 3.9-7.3 3.9z" fill="#8CC84B" />
</svg>
